<svg xmlns="http://www.w3.org/2000/svg" xmlns:xlink="http://www.w3.org/1999/xlink" version="1.1" width="500" height="500" viewBox="0 0 750 750" xml:space="preserve">
<g transform="matrix(1 0 0 1 250 250)">
<path style="stroke: none; stroke-width: 1; stroke-dasharray: none; stroke-linecap: butt; stroke-dashoffset: 0; stroke-linejoin: miter; stroke-miterlimit: 4; fill: rgb(0,0,0); fill-rule: nonzero; opacity: 1;" vector-effect="non-scaling-stroke"  transform=" translate(-251.8, -251.8)" d="M 486.82 12.59 L 335.738 12.59 C 326.48 12.59 318.951 20.119 318.951 29.377 L 318.951 62.95099999999999 C 318.951 72.20899999999999 326.48 79.738 335.738 79.738 L 344.131 79.738 L 344.131 214.033 C 344.131 278.83 291.41999999999996 331.541 226.623 331.541 L 67.148 331.541 L 67.148 323.148 C 67.148 313.89000000000004 59.619 306.36100000000005 50.361 306.36100000000005 L 16.787 306.36100000000005 C 7.529 306.361 0 313.89 0 323.148 L 0 474.23 C 0 483.488 7.529 491.017 16.787 491.017 L 50.361 491.017 C 59.619 491.017 67.148 483.488 67.148 474.23 L 67.148 465.837 L 226.623 465.837 C 365.467 465.837 478.426 352.878 478.426 214.034 L 478.426 79.738 L 486.81899999999996 79.738 C 496.07699999999994 79.738 503.60599999999994 72.209 503.60599999999994 62.951 L 503.60599999999994 29.377 C 503.607 20.119 496.078 12.59 486.82 12.59 z M 50.369 423.911 C 50.369 423.894 50.361 423.886 50.361 423.869 L 50.361 457.44300000000004 C 50.361 457.46000000000004 50.369 457.47700000000003 50.369 457.49300000000005 L 50.369 474.2300000000001 L 16.787 474.2300000000001 L 16.787 323.148 L 50.361 323.148 L 50.361 339.92600000000004 L 50.361 339.934 L 50.361 423.86800000000005 C 50.361 423.85100000000006 50.369 423.8430000000001 50.369 423.8260000000001 L 50.369 423.911 z M 159.475 432.262 L 67.148 432.262 L 67.148 415.475 L 159.476 415.475 C 164.109 415.475 167.869 419.22700000000003 167.869 423.86800000000005 C 167.869 428.51 164.109 432.262 159.475 432.262 z M 261.531 429.476 C 250.05700000000002 431.331 238.315 432.263 226.623 432.263 L 201.44299999999998 432.263 C 196.801 432.263 193.04999999999998 428.51099999999997 193.04999999999998 423.87 C 193.04999999999998 419.228 196.802 415.477 201.44299999999998 415.477 L 226.623 415.477 C 237.417 415.477 248.26999999999998 414.604 258.86199999999997 412.9 C 263.436 412.16999999999996 267.74199999999996 415.284 268.481 419.84999999999997 C 269.22 424.423 266.114 428.737 261.531 429.476 z M 375.027 373.903 C 359.382 388.432 341.764 400.577 322.652 409.978 C 321.46 410.557 320.20099999999996 410.834 318.959 410.834 C 315.862 410.834 312.882 409.113 311.422 406.15 C 309.374 401.995 311.086 396.959 315.249 394.911 C 332.884 386.232 349.158 375.027 363.595 361.606 C 366.98600000000005 358.45 372.29900000000004 358.643 375.45500000000004 362.042 C 378.611 365.434 378.418 370.747 375.027 373.903 z M 430.223 292.604 C 421.628 314.796 409.50800000000004 335.352 394.182 353.70799999999997 C 392.52000000000004 355.69699999999995 390.136 356.72099999999995 387.736 356.72099999999995 C 385.839 356.72099999999995 383.93399999999997 356.08299999999997 382.356 354.77399999999994 C 378.79699999999997 351.80299999999994 378.327 346.506 381.298 342.9479999999999 C 395.44100000000003 326.0019999999999 406.638 307.02399999999994 414.57 286.5439999999999 C 416.24899999999997 282.22099999999995 421.09999999999997 280.0809999999999 425.431 281.74299999999994 C 429.753 283.421 431.901 288.281 430.223 292.604 z M 444.852 214.033 C 444.852 222.771 444.332 231.575 443.282 240.212 C 442.77 244.476 439.152 247.607 434.964 247.607 C 434.628 247.607 434.293 247.59 433.957 247.548 C 429.349 246.994 426.067 242.814 426.621 238.214 C 427.578 230.24 428.065 222.099 428.065 214.033 L 428.065 197.24599999999998 C 428.065 192.60399999999998 431.825 188.85299999999998 436.45799999999997 188.85299999999998 C 441.09099999999995 188.85299999999998 444.851 192.605 444.851 197.24599999999998 L 444.851 214.033 z M 436.459 172.066 C 431.826 172.066 428.06600000000003 168.306 428.06600000000003 163.673 C 428.06600000000003 159.04 431.826 155.28 436.45900000000006 155.28 C 441.0920000000001 155.28 444.8520000000001 159.04 444.8520000000001 163.673 C 444.8520000000001 168.306 441.092 172.066 436.459 172.066 z M 444.852 130.098 C 444.852 134.74 441.092 138.491 436.45899999999995 138.491 C 431.8259999999999 138.491 428.0659999999999 134.739 428.0659999999999 130.098 L 428.0659999999999 104.918 C 428.0659999999999 100.27600000000001 431.8259999999999 96.525 436.45899999999995 96.525 C 441.092 96.525 444.852 100.277 444.852 104.918 L 444.852 130.098 z M 486.82 62.951 L 470.041 62.951 L 470.033 62.951 L 352.525 62.951 C 352.508 62.951 352.5 62.959 352.491 62.959 L 335.738 62.959 L 335.738 29.377 L 486.82 29.377 L 486.82 62.951 z" stroke-linecap="round" />
</g>
</svg>