<svg xmlns="http://www.w3.org/2000/svg" xmlns:xlink="http://www.w3.org/1999/xlink" version="1.1" width="500" height="500" viewBox="0 0 500 500" xml:space="preserve">
<g transform="matrix(1 0 0 1 250 250)" >
<path style="stroke: none; stroke-width: 1; stroke-dasharray: none; stroke-linecap: butt; stroke-dashoffset: 0; stroke-linejoin: miter; stroke-miterlimit: 4; fill: rgb(0,0,0); fill-rule: nonzero; opacity: 1;" vector-effect="non-scaling-stroke"  transform=" translate(0, 0)" d="M 235.016 -92.3285 L 201.442 -92.3285 C 192.184 -92.3285 184.655 -84.79950000000001 184.655 -75.54150000000001 L 184.655 -67.14850000000001 L 67.147 -67.14850000000001 L 67.147 -184.65550000000002 L 75.54 -184.65550000000002 C 84.798 -184.65550000000002 92.327 -192.1845 92.327 -201.44250000000002 L 92.327 -235.0165 C 92.327 -244.27450000000002 84.798 -251.8035 75.53999999999999 -251.8035 L -75.542 -251.8035 C -84.8 -251.8035 -92.32900000000001 -244.27450000000002 -92.32900000000001 -235.0165 L -92.32900000000001 -201.4425 C -92.32900000000001 -192.18449999999999 -84.80000000000001 -184.6555 -75.542 -184.6555 L -67.149 -184.6555 L -67.149 -67.1475 L -184.656 -67.1475 L -184.656 -75.5405 C -184.656 -84.79849999999999 -192.185 -92.32749999999999 -201.443 -92.32749999999999 L -235.017 -92.32749999999999 C -244.275 -92.32849999999999 -251.804 -84.79949999999998 -251.804 -75.54149999999998 L -251.804 75.54050000000001 C -251.804 84.7985 -244.275 92.32750000000001 -235.017 92.32750000000001 L -201.44299999999998 92.32750000000001 C -192.18499999999997 92.32750000000001 -184.65599999999998 84.79850000000002 -184.65599999999998 75.54050000000001 L -184.65599999999998 67.14750000000001 L -67.14799999999998 67.14750000000001 L -67.14799999999998 184.65550000000002 L -75.54099999999998 184.65550000000002 C -84.79899999999998 184.65550000000002 -92.32799999999997 192.1845 -92.32799999999997 201.44250000000002 L -92.32799999999997 235.0165 C -92.32799999999997 244.27450000000002 -84.79899999999998 251.8035 -75.54099999999997 251.8035 L 75.54100000000003 251.8035 C 84.79900000000002 251.8035 92.32800000000003 244.27450000000002 92.32800000000003 235.0165 L 92.32800000000003 201.4425 C 92.32800000000003 192.18449999999999 84.79900000000004 184.6555 75.54100000000003 184.6555 L 67.14800000000002 184.6555 L 67.14800000000002 67.1475 L 184.656 67.1475 L 184.656 75.5405 C 184.656 84.79849999999999 192.185 92.32749999999999 201.443 92.32749999999999 L 235.017 92.32749999999999 C 244.275 92.32749999999999 251.804 84.79849999999999 251.804 75.54049999999998 L 251.804 -75.54150000000001 C 251.803 -84.79950000000001 244.274 -92.32850000000002 235.016 -92.32850000000002 z M -201.427 75.5405 L -235.017 75.5405 L -235.017 -75.5415 L -201.44299999999998 -75.5415 L -201.44299999999998 -58.7625 L -201.44299999999998 -58.7545 L -201.44299999999998 58.753499999999995 C -201.44299999999998 58.778499999999994 -201.426 58.80349999999999 -201.426 58.829499999999996 L -201.426 75.5405 z M -75.542 -201.4265 L -75.542 -235.0165 L 75.53999999999999 -235.0165 L 75.53999999999999 -201.4425 L 58.760999999999996 -201.4425 L 58.75299999999999 -201.4425 L -58.755 -201.4425 C -58.78 -201.4425 -58.805 -201.4255 -58.831 -201.4255 L -75.542 -201.4255 z M 75.54 201.4425 L 75.54 235.0165 L -75.54199999999999 235.0335 L -75.54199999999999 201.4425 L -58.75499999999999 201.4425 L 25.17900000000001 201.4425 L 58.75300000000001 201.4425 z M 16.787 100.7215 C 16.787 100.7215 16.787 105.36250000000001 16.787 100.7215 z M 201.442 75.5405 L 201.442 58.753499999999995 L 201.442 16.786499999999997 L 201.442 -58.7545 L 201.442 -75.5415 L 235.01600000000002 -75.5415 L 235.03300000000002 75.5405 z" stroke-linecap="round" />
</g>
</svg>