<svg  viewBox="0 0 500 500" >
<g transform="matrix(1 0 0 1 250 250)">
<path style="stroke: none; stroke-width: 1; stroke-dasharray: none; stroke-linecap: butt; stroke-dashoffset: 0; stroke-linejoin: miter; stroke-miterlimit: 4; fill: rgb(0,0,0); fill-rule: nonzero; opacity: 1;" vector-effect="non-scaling-stroke"  transform=" translate(-224.92, -122.21)" d="M 167.27747 76.37994 L 167.27747 91.65611000000001 L 189.88268 91.65611000000001 C 204.57666999999998 91.65611000000001 217.00974 97.76676 221.53024 106.93228000000002 L 415.93343 106.93228000000002 C 435.14792 106.93228000000002 449.84056999999996 116.86129000000003 449.84056999999996 129.84608000000003 L 449.84056999999996 137.48371000000003 L 415.93342999999993 137.48371000000003 C 409.15199999999993 137.48371000000003 404.6314999999999 140.53858000000002 404.6314999999999 145.12134000000003 C 404.6314999999999 149.70410000000004 409.15199999999993 152.75897000000003 415.93342999999993 152.75897000000003 L 449.84056999999996 152.75897000000003 L 449.84056999999996 206.22511000000003 C 449.84056999999996 219.20990000000003 435.14793 229.13891000000004 415.93342999999993 229.13891000000004 L 221.53023999999994 229.13891000000004 C 217.00838999999993 238.30443000000002 204.57532999999992 244.41508000000005 189.88267999999994 244.41508000000005 L 31.64755999999994 244.41508000000005 C 16.953569999999942 244.41508000000005 4.520499999999942 238.30443000000005 -5.684341886080802e-14 229.13891000000004 L 0.0026899999999431567 106.93228000000003 C 4.524539999999943 97.76676000000003 16.957599999999946 91.65611000000004 31.650249999999943 91.65611000000004 L 54.25545999999994 91.65611000000004 L 54.25545999999994 38.18997000000004 C 54.25545999999994 33.60721000000004 58.77595999999994 30.552340000000036 65.55738999999994 30.552340000000036 L 76.85931999999994 30.552340000000036 L 76.85931999999994 22.914710000000035 C 76.85931999999994 9.929920000000035 91.55195999999994 0.0009100000000366038 110.76645999999994 0.0009100000000366038 C 129.98094999999995 0.0009100000000366038 144.67359999999994 9.929920000000036 144.67359999999994 22.914710000000035 L 144.67359999999994 30.552340000000036 L 152.58481999999992 30.552340000000036 L 205.70645999999994 1.5278900000000348 C 207.96738999999994 0.7634900000000349 210.22696999999994 3.4861002973229915e-14 212.48788999999994 3.4861002973229915e-14 L 438.53998999999993 3.4861002973229915e-14 C 445.32141999999993 3.4861002973229915e-14 449.84191999999996 3.054870000000035 449.84191999999996 7.637630000000034 L 449.84191999999996 38.18997000000004 C 449.84191999999996 42.77273000000004 445.32141999999993 45.82760000000004 438.53998999999993 45.82760000000004 L 239.61494999999994 45.82760000000004 L 185.36217999999994 74.85205000000005 C 183.10124999999994 75.61645000000004 180.84166999999994 76.37994000000005 178.58074999999994 76.37994000000005 z M 359.42108 145.12134 C 359.42108 149.7041 363.94158000000004 152.75897 370.72301000000004 152.75897 C 377.50444000000005 152.75897 382.0249400000001 149.7041 382.0249400000001 145.12134 C 382.0249400000001 140.53858 377.50444000000005 137.48371 370.72301000000004 137.48371 C 365.07272000000006 137.48371 359.42108 141.30298 359.42108 145.12134 z M 223.79117 152.75897 L 325.51394 152.75897 C 332.29537 152.75897 336.81587 149.7041 336.81587 145.12134 C 336.81587 140.53858 332.29537 137.48371 325.51394 137.48371 L 223.79117 137.48371 z M 99.46319 30.55143 L 122.06705 30.55143 L 122.06705 22.913800000000002 C 122.06705 18.33104 117.54655 15.276170000000002 110.76512 15.276170000000002 C 103.98369 15.276170000000002 99.46319 18.33104 99.46319 22.913800000000002 z M 76.85798 91.65611 L 144.67361 91.65611 L 144.67361 76.37994 L 76.85798 76.37994 z M 189.88268 106.93228 L 31.64756 106.93228 C 24.86613 106.93228 20.34563 109.98715 20.34563 114.56991000000001 L 20.34563 221.50128 C 20.34563 226.08404000000002 24.86613 229.13891 31.64756 229.13891 L 189.88268 229.13891 C 196.66411 229.13891 201.18461 226.08404000000002 201.18461 221.50128 L 201.18461 114.569 C 201.18461 109.98624000000001 196.66411 106.93137 189.88268 106.93137 z M 112.84471 185.97403 L 20.63566 185.97403 L 20.63566 152.03369 L 112.84471 152.03369 L 112.84471 122.70754000000001 L 199.81283000000002 168.96329 L 112.84471000000002 215.21904 z" stroke-linecap="round" />
</g>
</svg>