<svg xmlns="http://www.w3.org/2000/svg" xmlns:xlink="http://www.w3.org/1999/xlink" version="1.1" width="500" height="500" viewBox="0 0 500 500" xml:space="preserve">
<g transform="matrix(1 0 0 1 250 250)" >
<path style="stroke: none; stroke-width: 1; stroke-dasharray: none; stroke-linecap: butt; stroke-dashoffset: 0; stroke-linejoin: miter; stroke-miterlimit: 4; fill: rgb(0,0,0); fill-rule: nonzero; opacity: 1;" vector-effect="non-scaling-stroke"  transform=" translate(-251.8, -251.8)" d="M 302.164 201.443 C 303.84299999999996 201.443 305.521 200.604 307.2 199.764 L 347.489 167.869 L 495.21399999999994 167.869 C 500.24999999999994 167.869 503.60699999999997 164.512 503.60699999999997 159.476 L 503.60699999999997 125.902 C 503.60699999999997 120.866 500.24999999999994 117.509 495.21399999999994 117.509 L 327.344 117.509 C 325.665 117.509 323.98699999999997 118.348 322.308 119.188 L 282.859 151.083 L 276.984 151.083 L 276.984 142.69 C 276.984 128.421 266.073 117.50999999999999 251.80399999999997 117.50999999999999 C 237.53499999999997 117.50999999999999 226.62399999999997 128.421 226.62399999999997 142.69 L 226.62399999999997 151.083 L 218.23099999999997 151.083 C 213.19499999999996 151.083 209.83799999999997 154.44 209.83799999999997 159.476 L 209.83799999999997 193.05 L 209.83799999999997 218.23000000000002 L 193.05099999999996 218.23000000000002 C 182.13999999999996 218.23000000000002 172.90699999999995 224.94500000000002 169.54899999999995 235.01700000000002 L 25.18 235.01700000000002 C 10.911 235.01700000000002 0 245.92800000000003 0 260.197 L 0 268.59000000000003 L 41.967 268.59000000000003 C 47.003 268.59000000000003 50.36 271.94700000000006 50.36 276.98300000000006 C 50.36 282.01900000000006 47.003 285.3760000000001 41.967 285.3760000000001 L 0 285.3760000000001 L 0 344.1300000000001 C 0 358.3990000000001 10.911 369.3100000000001 25.18 369.3100000000001 L 169.547 369.3100000000001 C 172.904 379.3820000000001 182.137 386.0970000000001 193.049 386.0970000000001 L 310.557 386.0970000000001 C 321.468 386.0970000000001 330.701 379.3820000000001 334.059 369.3100000000001 L 478.42600000000004 369.3100000000001 C 492.69500000000005 369.3100000000001 503.60600000000005 358.3990000000001 503.60600000000005 344.1300000000001 L 503.60600000000005 285.3760000000001 L 478.42600000000004 285.3760000000001 C 473.39000000000004 285.3760000000001 470.033 282.01900000000006 470.033 276.98300000000006 C 470.033 271.94700000000006 473.39000000000004 268.59000000000003 478.42600000000004 268.59000000000003 L 503.60600000000005 268.59000000000003 L 503.60600000000005 260.197 C 503.60600000000005 245.928 492.69500000000005 235.017 478.42600000000004 235.017 L 334.059 235.017 C 330.702 224.945 321.46900000000005 218.23 310.557 218.23 L 293.77000000000004 218.23 L 293.77000000000004 201.44299999999998 L 302.164 201.44299999999998 z M 75.541 285.377 C 70.505 285.377 67.148 282.02 67.148 276.98400000000004 C 67.148 271.94800000000004 70.505 268.591 75.541 268.591 C 80.577 268.591 83.934 271.94800000000004 83.934 276.98400000000004 C 83.934 282.02 80.577 285.377 75.541 285.377 z M 167.869 285.377 L 109.11500000000001 285.377 C 104.07900000000001 285.377 100.72200000000001 282.02 100.72200000000001 276.98400000000004 C 100.72200000000001 271.94800000000004 104.07900000000001 268.591 109.11500000000001 268.591 L 167.869 268.591 L 167.869 285.377 z M 444.852 268.59 C 449.888 268.59 453.245 271.947 453.245 276.98299999999995 C 453.245 282.01899999999995 449.888 285.376 444.852 285.376 C 439.816 285.376 436.45899999999995 282.01899999999995 436.45899999999995 276.98299999999995 C 436.459 272.787 440.656 268.59 444.852 268.59 z M 335.738 268.59 L 411.279 268.59 C 416.315 268.59 419.672 271.947 419.672 276.98299999999995 C 419.672 282.01899999999995 416.315 285.376 411.279 285.376 L 335.738 285.376 L 335.738 268.59 z M 243.41 142.689 C 243.41 137.653 246.767 134.296 251.803 134.296 C 256.839 134.296 260.196 137.653 260.196 142.689 L 260.196 151.082 L 243.41 151.082 L 243.41 142.689 z M 226.623 201.443 L 276.984 201.443 L 276.984 218.23000000000002 L 226.623 218.23000000000002 L 226.623 201.443 z M 310.557 235.016 C 315.593 235.016 318.95000000000005 238.373 318.95000000000005 243.409 L 318.95000000000005 276.983 L 318.95000000000005 360.91700000000003 C 318.95000000000005 365.95300000000003 315.593 369.31000000000006 310.557 369.31000000000006 L 193.049 369.31000000000006 C 188.013 369.31000000000006 184.656 365.95300000000003 184.656 360.91700000000003 L 184.656 276.98300000000006 L 184.656 243.41 C 184.656 238.374 188.013 235.017 193.049 235.017 L 218.229 235.017 L 285.377 235.017 L 310.557 235.017 z" stroke-linecap="round" />
</g>
</svg>