<svg xmlns="http://www.w3.org/2000/svg" xmlns:xlink="http://www.w3.org/1999/xlink" version="1.1" width="500" height="500" viewBox="0 0 500 500" xml:space="preserve">
<g transform="matrix(1 0 0 1 250 250)" >
<path style="stroke: none; stroke-width: 1; stroke-dasharray: none; stroke-linecap: butt; stroke-dashoffset: 0; stroke-linejoin: miter; stroke-miterlimit: 4; fill: rgb(0,0,0); fill-rule: nonzero; opacity: 1;" vector-effect="non-scaling-stroke"  transform=" translate(-251.8, -251.8)" d="M 486.82 159.475 L 453.246 159.475 C 443.988 159.475 436.459 167.004 436.459 176.262 L 436.459 184.655 L 67.148 184.655 L 67.148 176.262 C 67.148 167.004 59.619 159.475 50.361 159.475 L 16.787 159.475 C 7.529 159.475 0 167.004 0 176.262 L 0 327.344 C 0 336.602 7.529 344.131 16.787 344.131 L 50.361 344.131 C 59.619 344.131 67.148 336.602 67.148 327.344 L 67.148 318.951 L 436.45899999999995 318.951 L 436.45899999999995 327.34400000000005 C 436.45899999999995 336.60200000000003 443.98799999999994 344.13100000000003 453.2459999999999 344.13100000000003 L 486.81999999999994 344.13100000000003 C 496.0779999999999 344.13100000000003 503.6069999999999 336.60200000000003 503.6069999999999 327.34400000000005 L 503.6069999999999 176.262 C 503.607 167.004 496.078 159.475 486.82 159.475 z M 50.369 327.344 L 16.787 327.344 L 16.787 176.262 L 50.361 176.262 L 50.361 193.041 L 50.361 193.049 L 50.361 226.606 L 50.361 226.623 L 50.361 226.64 L 50.361 310.558 C 50.361 310.575 50.369 310.592 50.369 310.608 L 50.369 327.344 z M 92.328 235.016 L 67.148 235.016 L 67.148 218.23 L 92.328 218.23 C 96.961 218.23 100.721 221.982 100.721 226.623 C 100.721 231.264 96.961 235.016 92.328 235.016 z M 125.902 235.016 C 121.269 235.016 117.509 231.256 117.509 226.623 C 117.509 221.98999999999998 121.269 218.23 125.902 218.23 C 130.535 218.23 134.29500000000002 221.98999999999998 134.29500000000002 226.623 C 134.29500000000002 231.256 130.535 235.016 125.902 235.016 z M 226.623 235.016 L 159.475 235.016 C 154.84199999999998 235.016 151.082 231.26399999999998 151.082 226.623 C 151.082 221.981 154.84199999999998 218.23 159.475 218.23 L 226.623 218.23 C 231.256 218.23 235.016 221.982 235.016 226.623 C 235.016 231.264 231.256 235.016 226.623 235.016 z M 352.525 235.016 L 268.59 235.016 C 263.957 235.016 260.197 231.26399999999998 260.197 226.623 C 260.197 221.981 263.957 218.23 268.59000000000003 218.23 L 352.524 218.23 C 357.157 218.23 360.91700000000003 221.982 360.91700000000003 226.623 C 360.918 231.264 357.158 235.016 352.525 235.016 z M 436.459 235.016 L 402.885 235.016 C 398.252 235.016 394.49199999999996 231.26399999999998 394.49199999999996 226.623 C 394.49199999999996 221.981 398.25199999999995 218.23 402.885 218.23 L 436.459 218.23 L 436.459 235.016 z M 453.246 327.344 L 453.246 310.557 L 453.246 226.62300000000002 L 453.246 193.04900000000004 L 453.246 176.26200000000003 L 486.82 176.26200000000003 L 486.828 327.34400000000005 L 453.246 327.34400000000005 z" stroke-linecap="round" />
</g>
</svg>