<svg xmlns="http://www.w3.org/2000/svg" xmlns:xlink="http://www.w3.org/1999/xlink" version="1.1" width="500" height="500" viewBox="0 0 500 500" xml:space="preserve">
<g transform="matrix(1 0 0 1 250 250)">
<path style="stroke: none; stroke-width: 1; stroke-dasharray: none; stroke-linecap: butt; stroke-dashoffset: 0; stroke-linejoin: miter; stroke-miterlimit: 4; fill: rgb(0,0,0); fill-rule: nonzero; opacity: 1;" vector-effect="non-scaling-stroke"  transform=" translate(-251.8, -251.8)" d="M 478.426 289.574 L 503.606 289.574 L 503.606 281.18100000000004 C 503.606 267.29800000000006 492.308 256.00100000000003 478.426 256.00100000000003 L 334.193 256.00100000000003 C 330.71799999999996 246.24800000000005 321.48499999999996 239.21400000000003 310.55699999999996 239.21400000000003 L 276.98299999999995 239.21400000000003 L 276.98299999999995 190.43 C 280.49999999999994 188.39000000000001 283.756 185.948 286.6689999999999 183.136 L 329.02199999999993 190.55599999999998 C 331.27099999999996 191.177 333.54599999999994 191.48799999999997 335.8039999999999 191.48799999999997 C 341.1339999999999 191.48799999999997 346.3459999999999 189.78399999999996 350.7699999999999 186.49399999999997 C 357.2249999999999 181.68499999999997 360.91799999999995 174.33199999999997 360.91799999999995 166.29899999999998 L 360.91799999999995 127.47899999999998 C 360.91799999999995 119.43799999999999 357.22499999999997 112.08499999999998 350.7699999999999 107.27599999999998 C 344.4669999999999 102.58399999999997 336.57699999999994 101.12399999999998 329.0229999999999 103.21399999999998 L 286.6699999999999 110.63399999999999 C 277.6129999999999 101.91299999999998 265.3339999999999 96.52499999999999 251.80399999999992 96.52499999999999 C 238.27399999999992 96.52499999999999 225.99399999999991 101.91399999999999 216.93799999999993 110.63399999999999 L 174.58499999999992 103.21399999999998 C 167.05599999999993 101.12399999999998 159.14099999999993 102.59299999999999 152.8379999999999 107.27599999999998 C 146.3829999999999 112.08499999999998 142.6899999999999 119.43799999999999 142.6899999999999 127.47899999999998 L 142.6899999999999 166.29899999999998 C 142.6899999999999 174.33199999999997 146.38299999999992 181.68399999999997 152.8379999999999 186.49399999999997 C 157.2609999999999 189.78399999999996 162.4739999999999 191.48799999999997 167.80399999999992 191.48799999999997 C 170.06199999999993 191.48799999999997 172.33599999999993 191.17699999999996 174.58599999999993 190.55599999999998 L 216.93899999999994 183.136 C 219.85199999999995 185.948 223.10799999999995 188.39 226.62499999999994 190.43 L 226.62499999999994 239.21300000000002 L 193.05099999999993 239.21300000000002 C 182.12299999999993 239.21300000000002 172.88999999999993 246.247 169.41499999999994 256 L 25.18 256 C 11.298 256 0 267.298 0 281.18 L 0 289.573 L 41.967 289.573 C 46.6 289.573 50.36 293.325 50.36 297.966 C 50.36 302.608 46.6 306.35900000000004 41.967 306.35900000000004 L 0 306.35900000000004 L 0 365.11300000000006 C 0 378.99600000000004 11.298 390.29300000000006 25.18 390.29300000000006 L 169.413 390.29300000000006 C 172.888 400.04600000000005 182.121 407.08000000000004 193.049 407.08000000000004 L 310.557 407.08000000000004 C 321.485 407.08000000000004 330.718 400.04600000000005 334.19300000000004 390.29300000000006 L 478.42600000000004 390.29300000000006 C 492.309 390.29300000000006 503.60600000000005 378.99500000000006 503.60600000000005 365.11300000000006 L 503.60600000000005 306.35900000000004 L 478.42600000000004 306.35900000000004 C 473.79300000000006 306.35900000000004 470.033 302.607 470.033 297.966 C 470.033 293.326 473.793 289.574 478.426 289.574 z M 75.541 306.361 C 70.908 306.361 67.148 302.601 67.148 297.96799999999996 C 67.148 293.3349999999999 70.908 289.57499999999993 75.541 289.57499999999993 C 80.17399999999999 289.57499999999993 83.934 293.3349999999999 83.934 297.96799999999996 C 83.934 302.601 80.174 306.361 75.541 306.361 z M 167.869 306.361 L 109.11500000000001 306.361 C 104.48200000000001 306.361 100.72200000000001 302.609 100.72200000000001 297.96799999999996 C 100.72200000000001 293.32599999999996 104.48200000000001 289.57499999999993 109.11500000000001 289.57499999999993 L 167.869 289.57499999999993 L 167.869 306.361 z M 226.573 168.792 C 226.523 168.733 226.497 168.65800000000002 226.447 168.599 C 225.112 167.05499999999998 223.954 165.426 222.939 163.748 C 222.88899999999998 163.664 222.84699999999998 163.57999999999998 222.805 163.49599999999998 C 221.899 161.95199999999997 221.13500000000002 160.36499999999998 220.497 158.72799999999998 C 220.22000000000003 157.998 220.02700000000002 157.23399999999998 219.8 156.48699999999997 C 219.447 155.37099999999995 219.08700000000002 154.26299999999998 218.86 153.11299999999997 C 218.48200000000003 151.08999999999997 218.23000000000002 149.01699999999997 218.23000000000002 146.88499999999996 C 218.23000000000002 144.75299999999996 218.48200000000003 142.67999999999995 218.86 140.65699999999995 C 219.08700000000002 139.50699999999995 219.448 138.39899999999994 219.8 137.28299999999996 C 220.02700000000002 136.53599999999994 220.22 135.77199999999996 220.497 135.04199999999994 C 221.13500000000002 133.40499999999994 221.899 131.81899999999993 222.805 130.27499999999995 C 222.847 130.19099999999995 222.889 130.10699999999994 222.939 130.02299999999994 C 223.95499999999998 128.34399999999994 225.113 126.71599999999994 226.447 125.17199999999994 C 226.497 125.11299999999994 226.523 125.03799999999994 226.573 124.97899999999994 C 232.725 117.89499999999994 241.698 113.31199999999994 251.804 113.31199999999994 C 261.90999999999997 113.31199999999994 270.882 117.89499999999994 277.043 124.97899999999994 C 277.085 125.03799999999994 277.11 125.11299999999994 277.16 125.17199999999994 C 278.495 126.71599999999994 279.653 128.34499999999994 280.668 130.02299999999994 C 280.718 130.10699999999994 280.76 130.19099999999995 280.802 130.27499999999995 C 281.708 131.81899999999996 282.47200000000004 133.40599999999995 283.11 135.04199999999994 C 283.387 135.77199999999993 283.58000000000004 136.53599999999994 283.807 137.28299999999996 C 284.16 138.39899999999997 284.52000000000004 139.50699999999995 284.747 140.65699999999995 C 285.125 142.67999999999995 285.377 144.75299999999996 285.377 146.88499999999996 C 285.377 149.01699999999997 285.125 151.08999999999997 284.747 153.11299999999997 C 284.52000000000004 154.26299999999998 284.159 155.37099999999998 283.807 156.48699999999997 C 283.58000000000004 157.23399999999998 283.387 157.99799999999996 283.11 158.72799999999998 C 282.47200000000004 160.36499999999998 281.708 161.951 280.802 163.49599999999998 C 280.76000000000005 163.57999999999998 280.718 163.664 280.668 163.748 C 279.652 165.427 278.494 167.05499999999998 277.16 168.599 C 277.11 168.658 277.084 168.73299999999998 277.043 168.792 C 273.795 172.52700000000002 269.825 175.599 265.225 177.613 C 256.588 181.382 247.02000000000004 181.382 238.38300000000004 177.613 C 233.783 175.599 229.812 172.527 226.573 168.792 z M 260.197 196.532 L 260.197 239.21300000000002 L 243.41 239.21300000000002 L 243.41 196.53200000000004 C 243.628 196.56600000000003 243.855 196.54900000000004 244.073 196.59100000000004 C 246.59900000000002 196.98500000000004 249.168 197.24600000000004 251.803 197.24600000000004 C 254.438 197.24600000000004 257.007 196.98600000000005 259.533 196.59100000000004 C 259.752 196.549 259.978 196.566 260.197 196.532 z M 318.951 297.967 L 318.951 381.90099999999995 C 318.951 386.53399999999993 315.182 390.294 310.558 390.294 L 193.049 390.294 C 188.424 390.294 184.656 386.534 184.656 381.90099999999995 L 184.656 297.967 L 184.656 264.393 C 184.656 259.76 188.425 255.99999999999997 193.049 255.99999999999997 L 235.01600000000002 255.99999999999997 L 268.59000000000003 255.99999999999997 L 310.557 255.99999999999997 C 315.182 255.99999999999997 318.95000000000005 259.76 318.95000000000005 264.393 L 318.95000000000005 297.967 z M 411.279 306.361 L 335.738 306.361 L 335.738 289.574 L 411.279 289.574 C 415.912 289.574 419.672 293.326 419.672 297.967 C 419.672 302.609 415.912 306.361 411.279 306.361 z M 444.852 306.361 C 440.219 306.361 436.45899999999995 302.601 436.45899999999995 297.96799999999996 C 436.45899999999995 293.3349999999999 440.21899999999994 289.57499999999993 444.852 289.57499999999993 C 449.48499999999996 289.57499999999993 453.245 293.3349999999999 453.245 297.96799999999996 C 453.245 302.601 449.486 306.361 444.852 306.361 z" stroke-linecap="round" />
</g>
</svg>