<svg xmlns="http://www.w3.org/2000/svg" xmlns:xlink="http://www.w3.org/1999/xlink" version="1.1" width="500" height="500" viewBox="0 0 500 500" xml:space="preserve">
<g transform="matrix(1 0 0 1 250 250)"   >
<path style="stroke: none; stroke-width: 1; stroke-dasharray: none; stroke-linecap: butt; stroke-dashoffset: 0; stroke-linejoin: miter; stroke-miterlimit: 4; fill: rgb(0,0,0); fill-rule: nonzero; opacity: 1;" vector-effect="non-scaling-stroke"  transform=" translate(-252.64, -128.88)" d="M 467.8702 243.82744 C 463.0052 251.92243 450.079 257.76065 434.7798 257.76065 L 270.2686 257.76065 C 254.96939999999998 257.76065 242.04319999999998 251.92243 237.1782 243.82744 L 35.25200000000001 243.82744 C 15.81720000000001 243.82744 7.105427357601002e-15 234.45093 7.105427357601002e-15 222.92804 L 7.105427357601002e-15 174.16222000000002 L 58.753800000000005 174.16222000000002 C 65.24000000000001 174.16222000000002 70.504 171.04889000000003 70.504 167.19603 C 70.504 163.344 65.24000000000001 160.22984 58.753800000000005 160.22984 L 7.105427357601002e-15 160.22984 L 7.105427357601002e-15 153.26364999999998 C 7.105427357601002e-15 141.74158999999997 15.817200000000007 132.36424999999997 35.25200000000001 132.36424999999997 L 237.181 132.36424999999997 C 242.04600000000002 124.26925999999997 254.97220000000002 118.43103999999997 270.2714 118.43103999999997 L 317.27500000000003 118.43103999999997 L 317.27500000000003 77.94114999999996 C 312.35120000000006 76.24794999999996 307.79280000000006 74.22108999999996 303.7146 71.88712999999997 L 244.42040000000003 78.04572999999996 C 241.27040000000002 78.56115999999996 238.08680000000004 78.81928999999997 234.92560000000003 78.81928999999997 C 227.46360000000004 78.81928999999997 220.16540000000003 77.40496999999996 213.97320000000002 74.67426999999996 C 204.9362 70.68196999999996 199.76600000000002 64.57980999999997 199.76600000000002 57.91241999999997 L 199.76600000000002 25.69181999999997 C 199.76600000000002 19.01778999999997 204.9362 12.914799999999971 213.97320000000002 8.923329999999972 C 222.7974 5.036439999999971 233.87840000000003 3.8171699999999715 244.419 5.551869999999972 L 303.71320000000003 11.710469999999972 C 316.39160000000004 4.472869999999973 333.58360000000005 -2.842170943040401e-14 352.52560000000005 -2.842170943040401e-14 C 371.46760000000006 -2.842170943040401e-14 388.6582000000001 4.472039999999971 401.3380000000001 11.710469999999972 L 460.63220000000007 5.5518699999999725 C 471.2078000000001 3.8171699999999724 482.25380000000007 5.028969999999973 491.0780000000001 8.923329999999972 C 500.11500000000007 12.914799999999971 505.2852000000001 19.01778999999997 505.2852000000001 25.69181999999997 L 505.2852000000001 57.91241999999997 C 505.2852000000001 64.57980999999997 500.11500000000007 70.68279999999997 491.0780000000001 74.67426999999996 C 484.8844000000001 77.40496999999996 477.58760000000007 78.81928999999997 470.1256000000001 78.81928999999997 C 466.96440000000007 78.81928999999997 463.77940000000007 78.56115999999997 460.6308000000001 78.04572999999996 L 401.3366000000001 71.88712999999996 C 397.2584000000001 74.22108999999996 392.7000000000001 76.24794999999996 387.7762000000001 77.94114999999995 L 387.7762000000001 118.43186999999995 L 434.7798000000001 118.43186999999995 C 450.07900000000006 118.43186999999995 463.00520000000006 124.27008999999995 467.87020000000007 132.36507999999995 z M 117.5076 167.19769 C 117.5076 163.35229999999999 112.2436 160.23149999999998 105.75739999999999 160.23149999999998 C 99.2712 160.23149999999998 94.00719999999998 163.35229999999999 94.00719999999998 167.19769 C 94.00719999999998 171.04308 99.27119999999998 174.16388 105.75739999999999 174.16388 C 112.24359999999999 174.16388 117.5076 171.04308 117.5076 167.19769 z M 235.0166 160.2315 L 152.76100000000002 160.2315 C 146.27480000000003 160.2315 141.01080000000002 163.34483 141.01080000000002 167.19769000000002 C 141.01080000000002 171.04972000000004 146.27480000000003 174.16388000000003 152.76100000000002 174.16388000000003 L 235.01660000000004 174.16388000000003 z M 333.7362 67.30304 C 345.828 70.43131 359.2232 70.43131 371.315 67.30304 C 377.755 65.63141999999999 383.313 63.08166 387.8602 59.981609999999996 C 387.9176 59.93264 387.954 59.87038999999999 388.024 59.821419999999996 C 389.8916 58.539899999999996 391.5128 57.18866 392.9352 55.795089999999995 C 393.0052 55.72537 393.064 55.655649999999994 393.1228 55.58593 C 394.39119999999997 54.30358 395.4608 52.987199999999994 396.354 51.62849 C 396.7418 51.02259 397.012 50.38847 397.3298 49.76846 C 397.82259999999997 48.84218 398.328 47.92254 398.64579999999995 46.968039999999995 C 399.17499999999995 45.28894999999999 399.52779999999996 43.56836 399.52779999999996 41.79879999999999 C 399.52779999999996 40.029239999999994 399.17499999999995 38.30864999999999 398.64579999999995 36.62955999999999 C 398.328 35.67505999999999 397.82399999999996 34.755419999999994 397.3298 33.82913999999999 C 397.012 33.20912999999999 396.74179999999996 32.57500999999999 396.354 31.969109999999986 C 395.4608 30.611229999999985 394.39119999999997 29.294019999999986 393.1228 28.012499999999985 C 393.06399999999996 27.942779999999985 393.0052 27.873059999999985 392.9352 27.803339999999984 C 391.5142 26.410599999999985 389.89300000000003 25.058529999999983 388.024 23.777009999999983 C 387.954 23.728039999999982 387.919 23.665789999999983 387.8602 23.616819999999983 C 379.2348 17.737099999999984 366.67400000000004 13.933209999999983 352.5256 13.933209999999983 C 338.3772 13.933209999999983 325.815 17.737099999999984 317.2022 23.616819999999983 C 317.1322 23.665789999999983 317.0958 23.728039999999982 317.0258 23.777009999999983 C 315.1582 25.058529999999983 313.537 26.409769999999984 312.1146 27.803339999999984 C 312.0446 27.873059999999985 311.9858 27.942779999999985 311.927 28.012499999999985 C 310.65860000000004 29.294019999999986 309.589 30.610399999999984 308.6958 31.969109999999986 C 308.308 32.575009999999985 308.0378 33.20912999999999 307.72 33.82913999999999 C 307.22720000000004 34.75541999999999 306.72180000000003 35.67505999999999 306.40400000000005 36.62955999999999 C 305.87480000000005 38.30864999999999 305.52200000000005 40.02923999999999 305.52200000000005 41.79879999999999 C 305.52200000000005 43.56835999999999 305.87480000000005 45.28894999999999 306.40400000000005 46.968039999999995 C 306.72180000000003 47.92254 307.22580000000005 48.84217999999999 307.72 49.76846 C 308.0378 50.38847 308.30800000000005 51.022589999999994 308.6958 51.62849 C 309.589 52.9872 310.65860000000004 54.30441 311.927 55.58593 C 311.98580000000004 55.655649999999994 312.0446 55.72537 312.1146 55.795089999999995 C 313.5356 57.18783 315.1568 58.539899999999996 317.0258 59.821419999999996 C 317.0958 59.87038999999999 317.1322 59.93264 317.2022 59.981609999999996 C 321.7368 63.08166 327.2962 65.63141999999999 333.7362 67.30304 z M 363.3462 83.05478 C 359.8098 83.38262999999999 356.21320000000003 83.59843 352.5242 83.59843 C 348.8352 83.59843 345.2386 83.3818 341.7022 83.05478 C 341.397 83.01992 341.0792 83.03402999999999 340.774 83.00581 L 340.774 118.43104 L 364.2758 118.43104 L 364.2758 83.00581 C 363.9692 83.03403 363.6528 83.01992 363.3462 83.05478 z M 446.53 167.19686 L 446.53 139.33043999999998 C 446.53 135.48504999999997 441.2548 132.36424999999997 434.77979999999997 132.36424999999997 L 270.2686 132.36424999999997 C 263.795 132.36424999999997 258.5184 135.48504999999997 258.5184 139.33043999999998 L 258.5184 236.86208 C 258.5184 240.70747 263.79359999999997 243.82827 270.2686 243.82827 L 434.7812 243.82827 C 441.2548 243.82827 446.5314 240.70747 446.5314 236.86208 L 446.5314 167.19686 z M 357.0426 134.25611 C 386.67628 134.25611 410.72681 158.30664000000002 410.72681 187.94032 C 410.72681 217.574 386.67628 241.62453000000002 357.0426 241.62453000000002 C 327.40891999999997 241.62453000000002 303.35839 217.574 303.35839 187.94032 C 303.35839 158.30664000000002 327.40891999999997 134.25611 357.0426 134.25611 z M 323.35839 187.94032 C 323.35839 206.53400000000002 338.44892 221.62453000000002 357.0426 221.62453000000002 C 375.63628 221.62453000000002 390.72681 206.53400000000002 390.72681 187.94032 C 390.72681 169.34664 375.63628 154.25611 357.0426 154.25611 C 338.44892 154.25611 323.35839 169.34664 323.35839 187.94032 z" stroke-linecap="round" />
</g>
</svg>