
<svg xmlns="http://www.w3.org/2000/svg" xmlns:xlink="http://www.w3.org/1999/xlink" version="1.1" width="500" height="500" viewBox="0 0 500 500" xml:space="preserve">
<g transform="matrix(1 0 0 1 250 250)"  >
<path style="stroke: none; stroke-width: 1; stroke-dasharray: none; stroke-linecap: butt; stroke-dashoffset: 0; stroke-linejoin: miter; stroke-miterlimit: 4; fill: rgb(0,0,0); fill-rule: nonzero; opacity: 1;" vector-effect="non-scaling-stroke"  transform=" translate(0, 0)" d="M 235.0165 -12.5905 L 201.4425 -12.5905 C 192.18449999999999 -12.5905 184.6555 -5.0615000000000006 184.6555 4.196499999999999 L 184.6555 12.5895 L 67.1475 12.5895 L 67.1475 -104.9185 L 75.5405 -104.9185 C 84.79849999999999 -104.9185 92.32749999999999 -112.44749999999999 92.32749999999999 -121.7055 L 92.32749999999999 -155.2785 C 92.32749999999999 -164.53650000000002 84.79849999999999 -172.06550000000001 75.54049999999998 -172.06550000000001 L -75.54150000000001 -172.06550000000001 C -84.79950000000001 -172.06550000000001 -92.32850000000002 -164.53650000000002 -92.32850000000002 -155.2785 L -92.32850000000002 -121.70450000000001 C -92.32850000000002 -112.44650000000001 -84.79950000000002 -104.91750000000002 -75.54150000000001 -104.91750000000002 L -67.14850000000001 -104.91750000000002 L -67.14850000000001 12.590499999999977 L -184.65550000000002 12.590499999999977 L -184.65550000000002 4.196499999999977 C -184.65550000000002 -5.061500000000022 -192.1845 -12.590500000000022 -201.44250000000002 -12.590500000000022 L -235.0165 -12.590500000000022 C -244.27450000000002 -12.590500000000022 -251.8035 -5.061500000000022 -251.8035 4.196499999999977 L -251.8035 155.27849999999998 C -251.8035 164.5365 -244.27450000000002 172.0655 -235.0165 172.0655 L -201.4425 172.0655 C -192.18449999999999 172.0655 -184.6555 164.5365 -184.6555 155.27849999999998 L -184.6555 146.88549999999998 L 184.6555 146.88549999999998 L 184.6555 155.27849999999998 C 184.6555 164.5365 192.18449999999999 172.0655 201.4425 172.0655 L 235.0165 172.0655 C 244.27450000000002 172.0655 251.8035 164.5365 251.8035 155.27849999999998 L 251.8035 4.196499999999986 C 251.8035 -5.061500000000013 244.27450000000002 -12.590500000000013 235.0165 -12.590500000000013 z M -201.4265 155.2785 L -235.0165 155.2785 L -235.0165 4.1965000000000146 L -201.4425 4.1965000000000146 L -201.4425 20.974500000000013 L -201.4425 20.982500000000012 L -201.4425 138.4905 C -201.4425 138.5155 -201.4255 138.5405 -201.4255 138.5665 L -201.4255 155.27849999999998 z M -58.8295 -121.6885 L -75.54050000000001 -121.6885 L -75.54050000000001 -155.2785 L 75.54149999999998 -155.2785 L 75.54149999999998 -121.70450000000001 L 58.76249999999999 -121.70450000000001 L 58.754499999999986 -121.70450000000001 L 16.786499999999982 -121.70450000000001 C 16.79449999999998 -121.70450000000001 16.803499999999982 -121.69650000000001 16.82049999999998 -121.69650000000001 L 16.75349999999998 -121.69650000000001 C 16.77049999999998 -121.69650000000001 16.77849999999998 -121.70450000000001 16.78749999999998 -121.70450000000001 L -58.75350000000002 -121.70450000000001 C -58.77950000000002 -121.70550000000001 -58.80450000000002 -121.6885 -58.82950000000002 -121.6885 z M 201.4425 155.2785 L 201.4425 138.4915 L 201.4425 54.557500000000005 L 201.4425 20.983500000000006 L 201.4425 4.1965000000000074 L 235.0165 4.1965000000000074 L 235.0335 155.2785 z" stroke-linecap="round" />
</g>
</svg>